<svg xmlns="http://www.w3.org/2000/svg" xmlns:xlink="http://www.w3.org/1999/xlink" xml:space="preserve" width="225" height="225" preserveAspectRatio="xMidYMid" version="1.0" viewBox="0 0 672 672"><defs><linearGradient id="a"><stop offset="0" stop-color="red"/><stop offset="1" stop-color="#ff0"/></linearGradient><linearGradient xlink:href="#a" id="b" x1="526.4" x2="517.7" y1="223.6" y2="748.6" gradientTransform="matrix(.8 0 0 .8 -45.7 -24.8)" gradientUnits="userSpaceOnUse"/></defs><path fill="url(#b)" d="M331.2 189.6C277.1 182.4 120.5 283 111 481.3c24 .7 36.6 1 60.2-.3 5.2-17 4.7-33 13-45.4 3.5-5.4 80.3-5.1 80.1-1.5-.5 16.4 1.2 35.1 1.4 47.1 24.3 1.6 45.5.5 66.6.5 2-95.5-.6-195-1-292.1zm-287.7 4c0 18 8.3 137.8-4 204.8C36 416.6 21.6 418 5.7 420.6l-2 60.6c1.6 0 77.3-3.1 98.2-48.2 10.4-22.4 8-218 7.4-239.9zm578.4 2-77.2-.8c-12.5 29.2-28.8 69.1-41 98.5 0 2.6 72.3-5.2 78.4 5.3-25.6 58.1-52.9 121-76 181.9 19.8.7 41.3 1.8 81.1 2.3 25.3-67.6 51.8-139.3 78.8-209.3-24.2-1.6-50.6-3.8-75.8-3.4 7-18.9 22.2-54.4 31.7-74.4zm-244.2.6c-12.4 29.3-38 74.8-42.1 94.5 24 .1 61.2 1.5 79.6 6.5-4.2 11.3-57 139.5-73 181 22.3 3.2 56.4 2.4 79.1 2.4 17.8-45.2 75.6-173.6 77-206.6-15.2-4.7-72-4-72-4s21.3-52.4 31.5-74.5c-22.1-2.5-57.9.5-80.1.7zM262.8 298.6c2.4 20.7-.5 64 1 87.4l-63.6-1.3c-4.5-16.6 35-85 62.6-86z"/><path d="M104 483.7c20.7.2 41 2 72.7-.4 0-9.5 8-43.7 8.5-46H257c1.6 13.2-.3 31.8 1 46 2 3.5 76.6 1.9 77.8.7 1.7-1.7 2.4-299.8 0-299.6-162 12.3-239.2 223-231.8 299.3ZM37 186.2s1.9 156.1-3.6 212C32 412.8 0 413.6 0 413.6l.5 74s110.3-3.7 115.3-73.2c3.9-13.6 1.1-228.4 1.1-228.4zm339.3 3.5s-35 69.8-47.8 108c28 .4 55.6 2.2 82.2 1.8 1.7 0-78.2 184.3-78.2 184.3.7-.4 92.7.8 92.7.8l73.3-185.2H574l-75 186 91-.2 82-220-76-.5c.4 0 30.4-73.9 30.4-73.9l-87.2-.3-34.1 74.2-75.1.5s25-53.1 32.7-75.4l-86.4-.1zm-49.3 3.5v282h-59c.8 0-.3-47.4-3.6-46.7-11.5 2.2-52.5-3.3-86.7.2-2 .2-8.7 25.7-8.7 46.5-17.4-1.6-39.1 2.5-56-.9 16.2-166.7 122.9-270.2 214-281ZM48.2 195l58.5-.3s.2 141.4-.7 198.3c-1 62-49.2 81.3-96.5 82.4 0 0 .4-43.5 0-50.5s31.9-2.2 34.4-23.4c4-33.5 4.2-139 4.3-206.5zm332.3 4.2 67.3.4-32.6 76 80.5.8S418.6 474 418.1 474.5c-.7.7-27.3.6-71 .2C370 414 424 291 424 291l-83.8-2.7zm165.5 0 65.1 1.2-29.5 73.6 78.1 1.7-75.8 199.5-70.9-.5 76.7-185.2s-64.7-1.8-83.6-1.8c12.8-29.7 39.9-88.5 39.9-88.5Zm-283.5 95.2c-20-6-74.5 84.1-70.5 91.2 4 7.1 69 6.3 72.9 4.6 3.8-1.6 5.9-93.4-2.4-95.8zm-6.4 8.2c4 2.1 4.8 73.5.9 77.6-3.9 4-53.5 2.3-55.9-1.1-2.3-3.5 51-78.6 55-76.5z"/></svg>
