<svg xmlns="http://www.w3.org/2000/svg" xml:space="preserve" width="225" height="225" fill="#f00"><path d="M76.5 7.5a84.6 84.6 0 0 1 44.3 72.2 40.9 40.9 0 0 1-71.5 27.4l-4.2 3.5a6.2 6.2 0 0 0-7 1.8c-3 .4-5.4 2.4-6.4 5.2A26.8 26.8 0 0 1 16.3 131c-3 1.1-6 3.1-8.7 5.8-5.2 5.2-7.7 11.8-6.3 16.6a4 4 0 0 0 5.2 4.8c4.8 1 11.1-1.6 16.2-6.6a24.2 24.2 0 0 0 5.8-9.4 26.4 26.4 0 0 1 14-15.1c2-1 3.6-3 4.2-5.3A54.5 54.5 0 0 0 87 141c29.8.7 52-21 53-52.5a81.9 81.9 0 0 0-19.5-52.9 87.6 87.6 0 0 0-44-28Z"/><path fill-rule="evenodd" d="M141.7 143a13.3 13.3 0 0 1-3.9-16.4l-36.8-28c-5 .4-9.6 2.8-14 5-9.2 5-17.3 9.2-26.3-1.7a10.4 10.4 0 1 1 4-6h.1c1 1.2 1.8 2.2 2.7 3 5.2 4.4 10.4 1.7 16.3-1.4l1.1-.6c2.9-1.5 5.9-3 9.1-4L49.4 56.5l-5 6-1 1.4-.8-2L34.2 39l26.2 4-6.6 8 34 27.9c.4-3.4 1.2-6.7 2.1-9.8l.4-1.4c1.9-6.5 3.5-12.2-2-16.4-.8-.6-1.7-1.1-2.7-1.6l-3.2 3.8c-.5.6-1.4.7-2 .2L66.1 42.2c-.7-.5-.7-1.5-.2-2.1l11.7-14.4c.5-.6 1.5-.7 2.1-.2L94 37c.7.5.8 1.5.3 2.1l-4.1 5c12.3 6.7 9.8 15.4 6.9 25.5-1.4 4.8-2.9 10-2.1 15l47.3 36.6c5-3.7 11.5-4 17 .4a14.2 14.2 0 0 1 2 19.5c-5 5.9-14 6.4-19.5 2z"/></svg>
