<svg xmlns="http://www.w3.org/2000/svg" width="225" height="225" fill="#f00">
    <path d="m112.5 0-8.4 26H76.8l22 16-8.3 25.8 22-16 22 16-8.4-25.9 22-16H121zm0 13.5 5.4 16.6h17.4l-14 10.2 5.3 16.6-14.1-10.2-14.1 10.2 5.4-16.6-14.1-10.2H107z"/>
    <path d="M52.3 135.7 71 154.4 88.6 137c26.7 28.6 54.8 56.2 81.4 85 4 4 10.5 4 14.5 0s4-10.4 0-14.4c-28.5-26.9-57-54-85.6-80.8l23.7-23.5-33-4.6z"/>
    <path d="M112.5 75a84 84 0 0 1 44 71.7 40.6 40.6 0 0 1-71 27.2l-4.1 3.5a6.2 6.2 0 0 0-7 1.7c-2.9.4-5.3 2.4-6.3 5.2a26.6 26.6 0 0 1-15.3 13.4c-3 1.1-6 3.1-8.7 5.8-5.1 5.1-7.6 11.7-6.2 16.4a3.9 3.9 0 0 0 5.2 4.8c4.7 1 11-1.6 16-6.5a24 24 0 0 0 5.8-9.4 26.2 26.2 0 0 1 13.9-15c2-1 3.6-3 4.2-5.2a54.1 54.1 0 0 0 40 18.9c29.6.6 51.6-21 52.6-52.2a81.3 81.3 0 0 0-19.4-52.5A87 87 0 0 0 112.5 75z"/>
</svg>
