<svg xmlns="http://www.w3.org/2000/svg" xml:space="preserve" width="20" height="20" viewBox="0 0 512 512"><g fill="#4d4d4d"><path d="M281.7 346.6c7 12.2-1.7 27.5-15.8 27.5h-8.7c-14.1 0-23-15.3-16-27.5l20.3-35 20.2 35zM161.1 229.6l65.2 65.2a65.3 65.3 0 0 1-111.4-46.5c0-23.9 29.3-35.6 46.2-18.7zM397.1 248.3a65.3 65.3 0 0 1-111.4 46.5l65.2-65.2c17-16.9 46.1-5.2 46.2 18.7z"/></g><path fill="#b3b3b3" d="M316.8 425.3c12-2.6 23.9-6.1 35.5-10.4v51.7c0 10.4-6.6 19.6-16.4 23-51.7 18-108 18-159.8 0a24.4 24.4 0 0 1-16.4-23v-51.7a279.4 279.4 0 0 0 157.1 10.4z"/><path fill="#999" d="M198.8 478.4v-52.3l-3.6-.8c-12-2.6-23.9-6.1-35.5-10.4v51.7c0 10.4 6.6 19.6 16.4 23a242 242 0 0 0 28.4 8c-3.6-5.2-5.7-12-5.7-19.2z"/><path fill="#ccc" d="M161.1 229.6c-17-16.9-46.1-5.2-46.2 18.7a65.3 65.3 0 0 0 111.4 46.5L161 229.6zm155.7 195.7a278.3 278.3 0 0 1-121.6 0 279.3 279.3 0 0 1-54-17.8 4.6 4.6 0 0 1-2.6-4.2V385c0-8.5-7-15.2-15.5-14.7a71 71 0 0 1-51.8-123 30.5 30.5 0 0 0 9.7-27.9 178 178 0 1 1 350 0c-2 10.4 2 20.9 9.8 28a70.6 70.6 0 0 1-51.9 123 14.7 14.7 0 0 0-15.5 14.6v18.3c0 1.8-1 3.4-2.7 4.2a274.5 274.5 0 0 1-53.9 17.8zM351 229.6l-65.2 65.2a65.3 65.3 0 0 0 111.4-46.5c0-23.9-29.3-35.6-46.2-18.7zm-85 144.5c14 0 22.9-15.3 15.8-27.5l-20.2-35-20.2 35a18.3 18.3 0 0 0 15.9 27.5h8.7z"/><path fill="#b3b3b3" d="M179.2 385c0-8.5-7.1-15.2-15.6-14.7a71 71 0 0 1-51.8-123 30.5 30.5 0 0 0 9.7-27.9A178 178 0 0 1 276.2 10 178 178 0 0 0 81 219.4c2 10.4-2 20.9-9.8 28a70.6 70.6 0 0 0 51.9 123c8.4-.6 15.5 6.1 15.5 14.6v18.3c0 1.8 1 3.4 2.7 4.2a272.4 272.4 0 0 0 37.9 13.8V385z"/><g fill="#333"><path d="M269.2 307.1a8.9 8.9 0 0 0-15.4 0l-20.2 35c-5 8.5-5 18.7 0 27.2s13.7 13.6 23.6 13.6h8.7c9.8 0 18.6-5 23.5-13.6s5-18.7 0-27.2l-20.2-35zm4.8 53.3a9.3 9.3 0 0 1-8.1 4.8h-8.7c-5 0-7.4-3.3-8.2-4.8a9.3 9.3 0 0 1 0-9.4l12.5-21.7L274 351c2.5 4.3.8 8 0 9.4zM235.2 294.8c0-2.4-1-4.6-2.6-6.3L170 226v-56.6a8.9 8.9 0 0 0-17.8 0v44.9c-7.7-2.3-16.1-2-24 1.3a35.1 35.1 0 0 0-22.2 32.8 74 74 0 0 0 46.2 69v22.8a8.9 8.9 0 0 0 17.8 0v-18a73.7 73.7 0 0 0 62.6-21c1.6-1.7 2.6-4 2.6-6.3zm-55 10.2a56 56 0 0 1-56.4-56.7c0-7.4 4.2-13.5 11-16.3a19 19 0 0 1 7.3-1.5c4.2 0 8.8 1.5 12.7 5.4l58.4 58.4a56 56 0 0 1-33 10.7zM383.9 215.5c-8-3.3-16.4-3.6-24.1-1.3v-45a8.9 8.9 0 0 0-17.8 0V226l-62.6 62.6a8.9 8.9 0 0 0 0 12.6 73.7 73.7 0 0 0 62.6 21v18a8.9 8.9 0 0 0 17.8 0v-22.7a74 74 0 0 0 46.2-69.1c0-14.6-8.5-27.2-22.1-32.8zm-12.2 73a56 56 0 0 1-73 5.8l58.5-58.4a18 18 0 0 1 20-4c6.9 2.9 11 9 11 16.5a56 56 0 0 1-16.5 40.1z"/><path d="M446.7 240.8a21.5 21.5 0 0 1-7-19.8 185.6 185.6 0 0 0-52.6-167A185.7 185.7 0 0 0 256.9 0h-.8c-49.8 0-96.6 19.3-131.9 54.5A185.6 185.6 0 0 0 72.3 221a21.5 21.5 0 0 1-7 19.8 79.5 79.5 0 0 0 58.3 138.4 5.7 5.7 0 0 1 6.1 5.8v18.3c0 5.3 3.1 10.1 8 12.3 4.3 2 8.7 3.7 13 5.5v45.5c0 14.1 9 26.7 22.4 31.4a251.2 251.2 0 0 0 165.8 0 33.3 33.3 0 0 0 22.3-31.4v-45.5l13.1-5.5c4.9-2.2 8-7 8-12.3V385a5.7 5.7 0 0 1 6.1-5.8 80.2 80.2 0 0 0 84.3-76c1-23.7-8.5-46.4-26-62.4zM343.4 466.6c0 6.5-4.2 12.4-10.4 14.6a234.1 234.1 0 0 1-154 0c-6.2-2.2-10.4-8-10.4-14.6v-39.3c5.8 1.9 11.7 3.6 17.7 5v24a8.9 8.9 0 0 0 17.8 0v-20.1a289 289 0 0 0 22.7 3.2v29a8.9 8.9 0 0 0 17.8 0v-27.8a290.2 290.2 0 0 0 22.8 0v27.8a8.9 8.9 0 0 0 17.8 0v-29c7.6-.8 15.2-1.9 22.7-3.2v20a8.9 8.9 0 0 0 17.8 0v-23.9c6-1.4 11.9-3.1 17.7-5v39.3zM455 302.4a62.3 62.3 0 0 1-65.5 59 23.6 23.6 0 0 0-24.9 23.6v15.5c-12.6 5.5-25.6 10-38.8 13.5v-27.8a8.9 8.9 0 0 0-17.8 0V418c-7.5 1.4-15.1 2.6-22.7 3.4v-23.2a8.9 8.9 0 0 0-17.8 0v24.5c-7.6.3-15.2.3-22.8 0v-24.5a8.9 8.9 0 0 0-17.8 0v23.2c-7.6-.8-15.2-2-22.7-3.4v-32a8.9 8.9 0 0 0-17.8 0V414a271 271 0 0 1-38.8-13.5V385a23.6 23.6 0 0 0-25-23.5h-6.8A61.8 61.8 0 0 1 77.2 254c10.3-9.4 15-23 12.5-36.2a168 168 0 0 1 47-150.7 168 168 0 0 1 120-49.3 168 168 0 0 1 118 48.9 168 168 0 0 1 47.6 151 39.2 39.2 0 0 0 12.5 36.3c13.6 12.4 20.9 30 20.1 48.4z"/></g></svg>
