<svg xmlns="http://www.w3.org/2000/svg" xml:space="preserve" width="20" height="20" viewBox="0 0 512 512"><path fill="#ffd3ae" d="M409 253.8V339l-.1 7.3a152.9 152.9 0 0 1-66.5 119l-1 .7c-24.4 16.4-53.8 26-85.4 26s-61-9.6-85.4-26l-1-.7A152.9 152.9 0 0 1 103 338.9V211c0-42.5 17.4-81 45.5-108.8A152.5 152.5 0 0 1 256 57.9c41.2 0 78.7 16.3 107.5 44.2l.7.6C392 130.4 409 168.7 409 211v42.8zM224.6 431.2a101.6 101.6 0 0 0 94.3-16.7 102.5 102.5 0 0 0 34.3-48.7h-62a46.3 46.3 0 0 0-35.2-76.6 46.4 46.4 0 0 0-35.2 76.6h-62a102.6 102.6 0 0 0 65.8 65.4zm127.5-127a44 44 0 0 0 6.3-62l-38.7 31.6-29.6 24a44 44 0 0 0 62 6.3zM222 297.8l-29.5-24.1-38.8-31.7a44 44 0 1 0 68.3 55.8z"/><path fill="#e8b995" d="M203 466a152.9 152.9 0 0 1-67.7-127V210.8A152.6 152.6 0 0 1 272.2 58.9 153.4 153.4 0 0 0 148.5 102 152.6 152.6 0 0 0 103 211v128l.1 7.3a152.9 152.9 0 0 0 66.5 119l1 .7a152.4 152.4 0 0 0 101.6 25c-25.4-2.6-49-11.5-69.1-25z"/><g fill="#f2f2f2"><path d="M193.1 365.8v48.7a102.6 102.6 0 0 1-34.3-48.7h34.3z"/><path d="M224.6 369.8v61.4a101.8 101.8 0 0 1-31.5-16.7v-48.7h27.7a49 49 0 0 0 3.8 4zM256 382v54.2c-11 0-21.5-1.7-31.4-5v-61.4A46.2 46.2 0 0 0 256 382z"/><path d="M287.4 369.8v61.4c-9.9 3.3-20.4 5-31.4 5V382c12.1 0 23.2-4.7 31.4-12.3zM318.9 365.8v48.7c-9.3 7.3-20 13-31.5 16.7v-61.4c1.4-1.3 2.6-2.6 3.8-4H319z"/><path d="M318.9 365.8h34.3a102.5 102.5 0 0 1-34.3 48.7v-48.7zM319.6 273.8l38.8-31.7a44 44 0 1 1-68.3 55.8l29.5-24.1zM192.4 273.8l29.5 24a44 44 0 0 1-68.3-55.7l38.8 31.7z"/></g><g fill="#e8b995"><path d="M409 253.8a48.2 48.2 0 0 1-.1 92.5l.1-7.4v-85.1zM103 339l.1 7.3a48.2 48.2 0 0 1-.1-92.5V339z"/></g><g fill="#9ad14b"><path d="M403 75.5a46.2 46.2 0 1 1 77.8 25 46.2 46.2 0 0 1-10.7 84 46.2 46.2 0 0 1-61 50.4v-24a152.6 152.6 0 0 0-45.6-108.8c7.1-15 22-25.7 39.6-26.6zM109 75.5a46.2 46.2 0 0 1 39.5 26.6A152.6 152.6 0 0 0 103 211v24a46.2 46.2 0 0 1-61-50.5 46.2 46.2 0 0 1-10.9-84 46 46 0 0 1 32.4-79.3A46.2 46.2 0 0 1 109 75.5z"/></g><path fill="#f95428" d="M224.6 369.8a46.3 46.3 0 0 1 31.4-80.5 46.4 46.4 0 1 1-31.4 80.5z"/><path fill="#e54728" d="M251.8 365.8a46.3 46.3 0 0 1 19.7-73.9 46.3 46.3 0 0 0-50.7 74 46.2 46.2 0 0 0 50.7 13.5 46.3 46.3 0 0 1-19.7-13.6z"/><g fill="#333"><path d="M512 139.6c0-15.8-7-30.9-18.6-41.2a54.9 54.9 0 1 0-99.7-31 54.6 54.6 0 0 0-32 20.7 161 161 0 0 0-211.3 0 54.6 54.6 0 0 0-32.1-20.6V67a54.9 54.9 0 1 0-99.7 31.5A55.2 55.2 0 0 0 0 139.6a55.1 55.1 0 0 0 32.8 50.2v1a54.9 54.9 0 0 0 61.6 54.4v2a57.2 57.2 0 0 0-34.6 52.2c0 23 14.2 43.8 35.1 52.5a161.7 161.7 0 0 0 70.6 120.4l.3.2c26.7 18 58 27.5 90.2 27.5 32.3 0 63.5-9.5 90.2-27.5l.3-.2.8-.6a161.7 161.7 0 0 0 69.8-119.8 57.2 57.2 0 0 0 35-52.5c0-22.8-13.8-43.4-34.5-52.3v-2a54.9 54.9 0 0 0 61.6-55.4 55.1 55.1 0 0 0 32.8-50.1zM87.6 228.3a37.6 37.6 0 0 1-37.2-43.1c.7-4.3-2-8.3-6.2-9.6a37.8 37.8 0 0 1-27-36c0-13.3 6.8-25.3 18.1-32.2 1.4-.8 2.7-2 3.5-3.5 1.8-3.5 1-7.6-1.6-10.2a37.7 37.7 0 0 1 23.5-64.4 37.6 37.6 0 0 1 39.8 44.1c-.1.4-1.2 5.2-4.2 10A22.4 22.4 0 0 1 86 92.8a8.5 8.5 0 0 0-5.3 8.7v.6A8.3 8.3 0 0 0 92 109a42.2 42.2 0 0 0 23-24.6 37.4 37.4 0 0 1 22.8 15.8 161 161 0 0 0-43.4 110.2v17.3c-2.3.4-4.5.6-6.8.6zm-10.5 71.1c0-13.2 6.7-25.4 17.3-32.7v65.4A39.8 39.8 0 0 1 77 299.4zm323.3 39a144.5 144.5 0 0 1-63.2 119.3l-.4.3-.3.2c-23.8 16-51.6 24.5-80.5 24.5s-56.7-8.4-80.5-24.5l-.3-.2c-.2 0-.3-.2-.4-.3l-.3-.1c-39.4-27-63-71.6-63-119.3v-128C111.6 130.8 176.5 66 256 66s144.4 64.8 144.4 144.5v128zm34.5-39c0 13.3-6.7 25.4-17.3 32.7v-65.4a39.9 39.9 0 0 1 17.3 32.7zm32.8-123.7a8.7 8.7 0 0 0-6.1 9.6 37.6 37.6 0 0 1-44 42.4v-17.3a161 161 0 0 0-43.4-110.2c5.3-8 13.5-13.6 22.8-15.8a42.2 42.2 0 0 0 23 24.6c5.1 2 10.7-1.4 11.3-6.9l.1-.7a8.3 8.3 0 0 0-5.2-8.5c-4.1-1.7-7.5-4.7-10.3-9-3.1-5-4.2-10-4.4-10.5A37.6 37.6 0 1 1 475 93.6a8.6 8.6 0 0 0 1.4 13.7 37.8 37.8 0 0 1-8.7 68.4z"/><path d="m353 234.9-66.6 54.3a54.7 54.7 0 0 0-60.8 0L159 234.9a8.6 8.6 0 0 0-12 1.2 52.8 52.8 0 0 0 56.2 83.7 54.9 54.9 0 0 0 2.2 36.8h-46.6a8.6 8.6 0 0 0-8.2 11.3c15 45.6 57.4 76.3 105.4 76.3 48 0 90.4-30.7 105.4-76.3a8.6 8.6 0 0 0-8.2-11.3h-46.6a54.7 54.7 0 0 0 2.2-36.8 53 53 0 0 0 48.8-9.6 52.8 52.8 0 0 0 7.5-74.1 8.6 8.6 0 0 0-12.1-1.2zM293.8 335a37.8 37.8 0 1 1-75.7-.1 37.8 37.8 0 0 1 75.7 0zm16.5 74.6c-4.5 3.2-9.3 6-14.2 8.3v-44.1h14.2v35.8zm-108.6-35.8H216v44c-5-2.3-9.7-5-14.2-8.2v-35.8zm31.5 11.2c4.4 2 9.2 3.5 14.2 4.3v37.2c-4.9-.5-9.6-1.3-14.2-2.4V385zm31.4 4.3c5-.8 9.8-2.3 14.2-4.3v39c-4.6 1.2-9.3 2-14.2 2.5v-37.2zm-99.3-92.5a35.2 35.2 0 0 1-9.7-42.6l23.4 19-5.9 5a8.6 8.6 0 0 0 11.2 13.1l8.2-7 16.5 13.4a35.5 35.5 0 0 1-43.7-1zm6.2 77h13v20c-5-6-9.5-12.8-13-20zm156 20v-20h13c-3.5 7.2-7.9 14-13 20zm32-121a35.2 35.2 0 0 1-38.8 31.8c-6.5-.7-12.6-3-17.7-6.9l16.5-13.4 8.1 7a8.6 8.6 0 0 0 12.2-.9c3.1-3.6 2.7-9-.9-12.1l-5.8-5 23.3-19a35.3 35.3 0 0 1 3.1 18.6z"/><path d="m160.3 198 5-2a9.2 9.2 0 0 1 10.2 1.9l29.3 29.3a26.4 26.4 0 0 0 37.5 0 8.6 8.6 0 0 0-12.2-12.1 9.3 9.3 0 0 1-13 0l-29.4-29.4a26.4 26.4 0 0 0-29.2-5.6l-5 2.1a8.6 8.6 0 1 0 6.8 15.9zM324.3 185.7 295 215.1a9.3 9.3 0 0 1-13 0 8.6 8.6 0 0 0-12.3 12.1 26.4 26.4 0 0 0 37.5 0l29.3-29.3a9.2 9.2 0 0 1 10.2-2l5 2.2a8.6 8.6 0 0 0 6.8-15.9l-5-2.1c-10-4.3-21.5-2-29.2 5.6z"/></g></svg>
