<svg xmlns="http://www.w3.org/2000/svg" width="18" height="18" viewBox="0 0 1024 1024"><path fill="#E5594F" d="M91.9 238.5a54.1 54.1 0 1 0 0 108.2 54.1 54.1 0 0 0 0-108.2z"/><path fill="#C45FA0" d="M91.9 462.5a54.1 54.1 0 1 0 0 108.2 54.1 54.1 0 0 0 0-108.2z"/><path fill="#F39A2B" d="M91.9 686.5a54.1 54.1 0 1 0 0 108.2 54.1 54.1 0 0 0 0-108.2z"/><path fill="#F0D043" d="M941.3 234.7H329a52.3 52.3 0 0 0-52.3 52.3v3.7A52.3 52.3 0 0 0 329 343h612.3a52.3 52.3 0 0 0 52.2-52.3V287a52.3 52.3 0 0 0-52.2-52.3z"/><path fill="#4A5699" d="M941.3 682.7H329a52.3 52.3 0 0 0-52.3 52.3v3.7A52.3 52.3 0 0 0 329 791h612.3a52.3 52.3 0 0 0 52.2-52.3V735a52.3 52.3 0 0 0-52.2-52.3z"/><path fill="#E5594F" d="M709.8 458.7H329a52.3 52.3 0 0 0-52.3 52.3v3.7A52.3 52.3 0 0 0 329 567h380.8a52.3 52.3 0 0 0 52.3-52.3V511a52.3 52.3 0 0 0-52.3-52.3z"/></svg>
