<svg xmlns="http://www.w3.org/2000/svg" xml:space="preserve" width="18" height="18" viewBox="0 0 512 512"><g fill="#f95428"><circle cx="191.4" cy="78.9" r="22.4"/><circle
        cx="320.6" cy="78.9" r="22.4"/></g>
    <path fill="#f7b239"
          d="M452.7 9.3v139.1H59.3V9.4h393.4zM342.9 79a22.4 22.4 0 1 0-44.7 0 22.4 22.4 0 0 0 44.7 0zm-129.1 0a22.4 22.4 0 1 0-44.7 0 22.4 22.4 0 0 0 44.7 0z"/>
    <path fill="#e6e6e6"
          d="M436.7 208v294.7H75.3V208l36.1-19.8 36.2 19.8 36.1-19.8 36.2 19.8 36.1-19.8 36.2 19.8 36.1-19.8 36.2 19.8 36.1-19.8z"/>
    <path fill="#ccc"
          d="M436.7 181.9v61.5l-36.1-19.8-36.1 19.8-36.2-19.8-36.1 19.8-36.2-19.8-36.1 19.8-36.2-19.8-36.1 19.8-36.2-19.8-36.1 19.8v-61.5z"/>
    <path fill="#e6e6e6"
          d="M436.7 148.4V208l-36.1-19.8-36.1 19.8-36.2-19.8-36.1 19.8-36.2-19.8-36.1 19.8-36.2-19.8-36.1 19.8-36.2-19.8L75.3 208v-59.6z"/>
    <path fill="#ccc" d="M75.3 148.4v24.2h361.4v-24.2H75.3z"/>
    <g fill="#333"><path d="M452.7 0H59.3A9.3 9.3 0 0 0 50 9.3v139.1c0 5.2 4.2 9.3 9.3 9.3H66v345c0 5.1 4.2 9.3 9.4 9.3h361.4c5.2 0 9.4-4.2 9.4-9.3v-345h6.6c5.1 0 9.3-4.1 9.3-9.3V9.4c0-5.2-4.2-9.4-9.3-9.4zm-384 18.6h374.7v120.5H68.6V18.6zm15.9 474.8V213.5l26.8-14.7 31.7 17.4a9.3 9.3 0 0 0 9 0l31.6-17.4 31.7 17.4a9.3 9.3 0 0 0 9 0l31.6-17.4 31.7 17.4a9.3 9.3 0 0 0 9 0l31.6-17.4 31.7 17.4a9.3 9.3 0 0 0 9 0l31.6-17.4 26.8 14.7v279.9H84.6zm342.8-301.1L405.1 180a9.3 9.3 0 0 0-9 0l-31.7 17.4-31.6-17.4a9.3 9.3 0 0 0-9 0l-31.6 17.4-31.7-17.4a9.3 9.3 0 0 0-9 0L220 197.4 188.2 180a9.3 9.3 0 0 0-9 0l-31.6 17.4-31.7-17.4a9.3 9.3 0 0 0-9 0l-22.3 12.3v-34.6h342.8v34.6z"/>
        <path d="M191.4 110.5a31.7 31.7 0 1 0 0-63.4 31.7 31.7 0 0 0 0 63.4zm0-44.7a13 13 0 1 1 0 26.1 13 13 0 0 1 0-26zM320.6 110.5a31.7 31.7 0 1 0 0-63.4 31.7 31.7 0 0 0 0 63.4zm0-44.7a13 13 0 1 1 0 26.1 13 13 0 0 1 0-26zM342 324.8a26.1 26.1 0 1 0 34.4-34.9 26.1 26.1 0 1 0-48.8 4.6c1.1 2.3 2.6 4.4 4.2 6.3l-14 6.6a69.2 69.2 0 0 0-61.5-39h-.3a68.3 68.3 0 0 0-62 39l-13.8-6.6a26.1 26.1 0 1 0-44.6-10.8 26.1 26.1 0 1 0 34.4 34.9v-.1a26 26 0 0 0 2.2-7.2l16 7.6a69.6 69.6 0 0 0 .2 24.7l-.4.7a32.9 32.9 0 0 0-10.8 23.5l-5 2.4a26 26 0 0 0-37-19.6 26 26 0 0 0-12.3 34.7c2.6 5.6 7 10 12.7 12.6a26 26 0 0 0 36.4 30.2 26.1 26.1 0 0 0 8.2-41l2-1a33.2 33.2 0 0 0 25.2 15.4v1.8c0 4.3 2.6 8.2 6.5 10a103 103 0 0 0 84.2 0c4-1.8 6.4-5.7 6.4-10v-1.8a33.2 33.2 0 0 0 25.3-15.5l2 1a26 26 0 0 0 19.4 43.5c9.7 0 19.1-5.5 23.6-14.9a25.9 25.9 0 0 0 1.6-17.7 26 26 0 0 0 13.7-32.5 26 26 0 0 0-33.3-15.8 26 26 0 0 0-17 20.6l-5-2.4c-.3-9-4.1-17.4-10.8-23.5-.2-.2-.4-.5-.4-.8a69.1 69.1 0 0 0 .1-24.6l16.1-7.6c.4 2.5 1.1 4.9 2.2 7.2zm-188-44.7a7.5 7.5 0 1 1 3.6 10 7.4 7.4 0 0 1-3.5-10zm-.8 36.7a7.5 7.5 0 1 1-13.5-6.4 7.5 7.5 0 0 1 13.5 6.4zM139.3 378a7.4 7.4 0 0 1 7-4.9 7.5 7.5 0 0 1 3.2 14.2 7.4 7.4 0 0 1-10-3.6c-.8-1.8-.9-3.8-.2-5.7zm24.6 39.6a7.4 7.4 0 0 1-10-3.6 7.5 7.5 0 1 1 10 3.6zm138.6-28.2H301a14.3 14.3 0 0 0-15 14.2v1a84.6 84.6 0 0 1-60 0v-1a14.3 14.3 0 0 0-15-14.2h-1.6a14.3 14.3 0 0 1-8.9-25c5.1-4.5 7.4-11.2 6.2-17.8a50.6 50.6 0 0 1 13.9-44.8 49.7 49.7 0 0 1 35.6-14.6 50.4 50.4 0 0 1 49.1 59.3c-1.2 6.7 1.1 13.4 6.2 18a14.3 14.3 0 0 1-9 24.9zm55.3 24.6a7.5 7.5 0 1 1-3.5-9.9 7.4 7.4 0 0 1 3.5 10zm1-36.6a7.5 7.5 0 0 1 13.4 6.3 7.5 7.5 0 0 1-13.4-6.3zm13.7-61.2c-.7 1.9-2 3.4-3.8 4.3a7.5 7.5 0 0 1-10-3.6 7.4 7.4 0 0 1 3.6-10c1-.4 2.1-.6 3.2-.6a7.5 7.5 0 0 1 7 10zm-23.9-25.8a7.4 7.4 0 0 1-4.5-9.5 7.5 7.5 0 1 1 10.2 9.2l-.1.1c-1.8.8-3.8.9-5.6.2z"/>
        <circle cx="278.2" cy="368.7" r="9.3"/>
        <circle cx="233.8" cy="368.7" r="9.3"/>
        <circle cx="255.9" cy="385.7" r="9.3"/></g></svg>
