<svg xmlns="http://www.w3.org/2000/svg" xml:space="preserve" width="20" height="20" viewBox="0 0 512 512"><path fill="#f7b239" d="M145.6 152.5h-42.3L40.8 90.1a15 15 0 0 1 0-21.2A15 15 0 0 1 62 69l83.6 83.6z"/><g fill="gray"><path d="m429 417.8 24.4 85.2h-32.3l-34.7-44.7c16-11.4 30.4-25 42.5-40.5zM153.6 458.3 118.8 503H86.5l24.5-85.2a202.9 202.9 0 0 0 42.6 40.5z"/></g><path fill="#9ad14b" d="M297.5 205.2v61a21.5 21.5 0 0 1-43 0V229a21.5 21.5 0 0 0-43.2 0v6a21.5 21.5 0 0 1-43 0v-82.6h129.2v52.7z"/><path fill="#b3b3b3" d="M168.3 152.5v52.7H90.7l-2.3-.1a26.2 26.2 0 0 1-24-26.3 26.3 26.3 0 0 1 26.3-26.3h77.6z"/><path fill="#999" d="M106 197.5a26.2 26.2 0 0 1 18.7-45h-34a26.3 26.3 0 0 0 0 52.7h34l-2.3-.1a26.2 26.2 0 0 1-16.4-7.6z"/><path fill="#b3b3b3" d="M467.9 160.2a26.2 26.2 0 0 1-18.7 45H297.5v-52.7h151.7c7.3 0 13.9 3 18.7 7.7z"/><path fill="#ccc" d="M471.8 293.4a200.9 200.9 0 0 1-85.4 164.9c-33 23.2-73.1 36.9-116.4 36.9a201 201 0 0 1-159-77.4 200.9 200.9 0 0 1-31.8-190.4c2.6-7.7 5.7-15.1 9.2-22.3H168.3v30a21.5 21.5 0 0 0 21.5 21.5c11.9 0 21.5-9.6 21.5-21.5v-6a21.5 21.5 0 0 1 21.6-21.5c11.9 0 21.5 9.6 21.5 21.5v37a21.5 21.5 0 0 0 21.5 21.6c12 0 21.6-9.6 21.6-21.5v-61h151.7l2.3-.1a199 199 0 0 1 20.3 88.3z"/><g fill="#b3b3b3"><path d="m451.5 205-2.3.2H297.5V230h154a26 26 0 0 0 9.3-2.7 199 199 0 0 0-9.3-22.2zM172 417.8A200.9 200.9 0 0 1 139.3 230h29v-24.8H90.7l-2.3-.1-2.4 5.2-1 2.1-1.3 3.2-1 2.4-1.2 3-.9 2.3-1.2 3.4-.2.7A201.4 201.4 0 0 0 111 417.8a201 201 0 0 0 189.5 75.1A200.8 200.8 0 0 1 172 417.8z"/></g><path fill="#333" d="M464 210.9a35.3 35.3 0 0 0-14.8-67.3h-300l-80.9-81a23.8 23.8 0 0 0-33.8 0 23.8 23.8 0 0 0 0 33.8l48 48.1A35.3 35.3 0 0 0 76 211a209.7 209.7 0 0 0 25.3 208.6l-23.3 81a9 9 0 0 0 8.6 11.5h32.3a9 9 0 0 0 7.1-3.5l29.7-38.1c33 21.3 72.2 33.8 114.4 33.8 42.1 0 81.4-12.5 114.4-33.8l29.6 38.1a9 9 0 0 0 7.1 3.5h32.3a9 9 0 0 0 8.6-11.4l-23.2-81A209.7 209.7 0 0 0 464 210.8zm-2.5-44.3a17.4 17.4 0 0 1-12.3 29.6H306.4v-34.7h142.8c4.7 0 9 1.8 12.3 5zm-228.6 32a30.5 30.5 0 0 0-30.5 30.5v6a12.6 12.6 0 0 1-25.2 0v-73.6h111.3v104.7a12.6 12.6 0 0 1-25.1 0V229a30.5 30.5 0 0 0-30.5-30.5zM45.4 79.6a6 6 0 0 1 10.2-4.2l68.3 68.2h-17L47.3 83.7a6 6 0 0 1-1.8-4.2zm45.3 81.9h68.6v34.7H90.7c-4.7 0-9-1.8-12.3-5s-5-7.7-5-12.4c0-9.5 7.7-17.3 17.3-17.3zm23.7 332.6h-16l16.7-57.9c7.9 8.6 16.5 16.6 25.8 23.7l-26.5 34.2zM77.1 293.4c0-27.7 5.7-54.4 17-79.3h65.2v21a30.5 30.5 0 0 0 61 0v-6a12.6 12.6 0 0 1 25.1 0v37a30.5 30.5 0 0 0 61 0v-52H446A193 193 0 0 1 270 486.2 193 193 0 0 1 77 293.4zM441.5 494h-16L399 459.9c9.3-7.1 18-15.1 25.9-23.7l16.6 57.9z"/><g fill="#9ad14b"><path d="M257.4 117.8a9 9 0 1 0 18 0c0-7.3 1.2-10.6 2.9-14.8 2-5 4.2-10.7 4.2-21.5s-2.2-16.4-4.2-21.4c-1.7-4.2-3-7.5-3-14.8 0-7.4 1.3-10.7 3-14.9 2-5 4.2-10.6 4.2-21.4a9 9 0 1 0-18 0c0 7.3-1.2 10.6-2.9 14.8-2 5-4.2 10.7-4.2 21.5s2.2 16.4 4.2 21.4c1.7 4.2 3 7.5 3 14.8 0 7.4-1.3 10.7-3 14.9-2 5-4.2 10.7-4.2 21.4zM194 117.8a9 9 0 0 0 18 0c0-7.3 1.2-10.6 2.9-14.8 2-5 4.2-10.7 4.2-21.5S217 65.1 215 60.1c-1.7-4.2-3-7.5-3-14.8a9 9 0 0 0-18 0 51 51 0 0 0 4.3 21.4c1.7 4.2 3 7.5 3 14.8 0 7.4-1.3 10.7-3 14.9-2 5-4.2 10.7-4.2 21.4zM320.8 117.8a9 9 0 1 0 18 0c0-7.3 1.2-10.6 2.9-14.8 2-5 4.2-10.7 4.2-21.5s-2.2-16.4-4.2-21.4c-1.7-4.2-3-7.5-3-14.8a9 9 0 1 0-17.9 0c0 10.7 2.2 16.4 4.2 21.4 1.7 4.2 3 7.5 3 14.8 0 7.4-1.3 10.7-3 14.9-2 5-4.2 10.7-4.2 21.4z"/></g></svg>
