<svg xmlns="http://www.w3.org/2000/svg" xml:space="preserve" width="20" height="20" viewBox="0 0 512 512"><g fill="#f95428"><path d="M392.3 334.6a187.9 187.9 0 0 1-74.7 63.1V376h-30.4v31.8a151.7 151.7 0 0 1-107-17.3 193.8 193.8 0 0 1-60.5-55.8 605.8 605.8 0 0 0 87.5 13.6v30.1h32.7V350c51.1 1.4 102.3-3.8 152.4-15.4zM256 261.7l31.5 54.7h-63zM370.3 211.8l27.9 78.2-108.5-22.1zM222.3 267.9 113.8 290l27.9-78.2z"/></g><path fill="#9ad14b" d="m330.5 94.2 19.6 12.3h-2a66 66 0 0 0-33.5 9.5C297 101.4 277.2 93 256 93s-41 8.4-58.6 23a66 66 0 0 0-35.5-9.4l19.6-12.4a91.9 91.9 0 0 0 43.1-78h62.8a92 92 0 0 0 43.1 78z"/><path fill="#90bc42" d="M210 106.5h-2l19.6-12.3c13.4-8.4 20-62.1 20-78h-23a92 92 0 0 1-43.1 78l-19.6 12.3h2a66 66 0 0 1 33.5 9.5c4.3-3.5 8.6-6.7 13.1-9.5h-.6z"/><path fill="#f7b239" d="M395.3 125.8c3.8-.8 7.7-1.2 11.6-1.2 53 0 96 76 96 169.8s-43 169.8-96 169.8c-3.9 0-7.8-.4-11.6-1.2a71.7 71.7 0 0 1-47.1 19.3 66 66 0 0 1-33.6-9.5c-17.5 14.6-37.4 23-58.6 23s-41-8.4-58.6-23a66 66 0 0 1-33.6 9.5c-16.9 0-33-7-47.1-19.3-3.8.8-7.7 1.2-11.6 1.2-53 0-96-76-96-169.8s43-169.8 96-169.8c3.9 0 7.8.4 11.6 1.2a72.3 72.3 0 0 1 47.1-19.3 66 66 0 0 1 33.6 9.5c17.5-14.6 37.4-23 58.6-23s41 8.4 58.6 23a66 66 0 0 1 35.5-9.4c16.2.5 31.6 7.3 45.2 19.2zm2.9 164.2-27.9-78.2-80.6 56L398.2 290zm-80.6 107.7c28.9-13 54.5-34.9 74.7-63A604.4 604.4 0 0 1 240 350v28.3h-32.7v-30a606 606 0 0 1-87.5-13.7 193.8 193.8 0 0 0 60.5 55.9 151.7 151.7 0 0 0 107 17.2V376h30.4v21.8zm-30-81.3L256 261.7l-31.5 54.7h63zM113.7 290 222.3 268l-80.6-56-28 78.1z"/><path fill="#e09b2d" d="M85 294.4c0-133.1 87.4-181.9 97.5-185a62.6 62.6 0 0 0-20.6-2.8 72.3 72.3 0 0 0-45.2 19.2c-3.8-.8-7.7-1.2-11.6-1.2-53 0-96 76-96 169.8s43 169.8 96 169.8c3.9 0 7.8-.4 11.6-1.2a71.7 71.7 0 0 0 47.1 19.3c6.4 0 12.6-1 18.6-2.9-10-3.1-97.4-44.8-97.4-185z"/><g fill="#333"><path d="M482.7 169.8c-19.8-35-46.7-54.3-75.8-54.3-3 0-6 .2-9.1.7A80.7 80.7 0 0 0 353 97.6l-17.6-11a82.5 82.5 0 0 1-39-70.4c0-5-4-9-9-9h-62.8c-5 0-9 4-9 9 0 28.8-14.6 55-39 70.3L159 97.6a80.7 80.7 0 0 0-44.8 18.6c-3-.5-6-.7-9.1-.7-29 0-56 19.3-75.8 54.3C10.4 203.3 0 247.5 0 294.4S10.4 385.5 29.3 419C49 454 76 473.3 105 473.3c3 0 6-.2 9.1-.7a79.2 79.2 0 0 0 49.6 18.8c11.2 0 22.1-2.6 32.6-7.8a98.5 98.5 0 0 0 59.6 21.3c20.7 0 41.2-7.4 59.6-21.3a73.6 73.6 0 0 0 32.6 7.8c17.5 0 34.4-6.6 49.6-18.8 3 .5 6 .7 9.1.7 29 0 56-19.3 75.8-54.3 18.9-33.5 29.3-77.7 29.3-124.6 0-46.9-10.4-91.1-29.3-124.6zM233.3 25.3h45.4c2.7 31.1 19.5 59 46.1 76-3.1 1.1-6.2 2.4-9.2 3.9A100.9 100.9 0 0 0 265 84.4V55.1a9.1 9.1 0 0 0-18.2 0v29.3a100.9 100.9 0 0 0-50.5 20.8c-3-1.5-6-2.8-9.2-3.8 26.6-17 43.4-45 46.1-76zM467 410c-14.2 25-31.9 40.3-50.7 44.2a210.9 210.9 0 0 0 38.6-82.3 9.1 9.1 0 0 0-17.6-4.4c-16 64.2-51 105.7-89 105.7a54 54 0 0 1-17.5-3c9.3-9.6 17.8-21 25.4-33.9a9 9 0 1 0-15.8-9 145.9 145.9 0 0 1-31.6 38.5 81.3 81.3 0 0 1-52.7 20.9c-18.5 0-36.2-7-52.7-20.9a146 146 0 0 1-31.7-38.6 9.1 9.1 0 0 0-15.7 9.1 174 174 0 0 0 25.4 33.9 54 54 0 0 1-17.5 3c-38 0-73-41.5-89-105.7a9 9 0 1 0-17.6 4.4 211 211 0 0 0 38.6 82.3C77 450.3 59.3 435 45 410c-17.3-30.7-26.9-71.8-26.9-115.6s9.6-84.9 27-115.6c14-25 31.8-40.3 50.6-44.2A211 211 0 0 0 57.2 217a9.1 9.1 0 0 0 17.6 4.4c16-64.2 51-105.7 89-105.7 5.9 0 11.7 1 17.5 3-9.3 9.6-17.9 21-25.4 33.9a9 9 0 1 0 15.8 9 145.2 145.2 0 0 1 31.6-38.5 81.3 81.3 0 0 1 52.7-20.9c18.5 0 36.2 7 52.7 20.9a145.1 145.1 0 0 1 31.5 38.3 9.1 9.1 0 1 0 16-8.8c-7.6-13-16.2-24.3-25.5-34a54 54 0 0 1 17.5-2.9c38 0 73 41.5 89 105.7a9.1 9.1 0 0 0 17.6-4.4 211 211 0 0 0-38.6-82.3c18.8 3.9 36.5 19.2 50.7 44.2 17.3 30.7 27 71.8 27 115.6s-9.7 84.9-27 115.6z"/><path d="m115.6 299 108.6-22.2a9.1 9.1 0 0 0 3.3-16.4l-80.6-56a9.1 9.1 0 0 0-13.8 4.4L105.2 287a9 9 0 0 0 10.4 12zm30.7-73 53.4 37.2-72 14.7 18.6-51.8zM378.9 208.8a9 9 0 0 0-13.8-4.5l-80.6 56.1a9.1 9.1 0 0 0 3.3 16.4l108.6 22.1a9 9 0 0 0 8.7-3 9 9 0 0 0 1.7-9l-28-78.1zm-66.6 54.4 53.4-37.1 18.5 51.8-71.9-14.7zM390.3 325.8a596 596 0 0 1-150.1 15.1 9.2 9.2 0 0 0-9.4 9v19.3h-14.5v-21c0-4.7-3.7-8.7-8.4-9-29-2.4-58-6.9-86.2-13.4a9.1 9.1 0 0 0-9.4 14.1c36.5 51 88.9 80.3 143.7 80.3 11 0 22.2-1.2 33.2-3.6 4.1-.9 7.1-4.6 7.1-8.9V385h12.2v12.7a9.1 9.1 0 0 0 12.8 8.3c30-13.4 57-36.3 78.4-66a9.1 9.1 0 0 0-9.4-14.2zm-63.6 57.1v-7c0-5-4.1-9.1-9.1-9.1h-30.4c-5 0-9 4-9 9v24.4c-7.4 1.2-14.8 1.8-22.2 1.8-41.5 0-81.7-19.1-113.1-53.2 18.2 3.4 36.7 6 55.2 7.8v21.7c0 5 4 9.1 9 9.1H240c5 0 9.1-4 9.1-9v-19.1c40.3.4 80.6-3 120.1-10.5a176.4 176.4 0 0 1-42.4 34.1z"/><path d="M216.6 321a9.1 9.1 0 0 0 7.9 4.5h63a9 9 0 0 0 8-13.7l-31.6-54.6a9.1 9.1 0 0 0-15.8 0l-31.5 54.6a9 9 0 0 0 0 9.1zm39.4-41 15.8 27.3h-31.6l15.8-27.4z"/></g></svg>
