<svg xmlns="http://www.w3.org/2000/svg" xml:space="preserve" viewBox="0 0 512 512" width="18" height="18"><path fill="#f95428" d="M180.4 442.9v60.4l-26.2-17.5-26.2 17.5v-60.4z"/><path fill="#995c0d" d="M75.9 8.7h34v434.2h-34z"/><g fill="#f7b239"><path d="M436 171.8v108a12 12 0 0 1-11.9 12h-27.8a20.5 20.5 0 0 1-20.5-20.4v-91.2c0-11.2 9.2-20.4 20.5-20.4H424a12 12 0 0 1 12 12zM414 29v40.2c-33.3 0-60.4-27-60.4-60.5h40.1c11.3 0 20.4 9.1 20.4 20.4zM414 382.4v40.2c0 11.2-9 20.3-20.3 20.3h-40.1c0-33.4 27-60.5 60.5-60.5zM327.2 165.7v33.6h-57.8v147.1h-33.7V199.3h-57.8v-33.6h57.8v-60.5h33.7v60.5z"/></g><path fill="#b27214" d="M414 291.8v90.6c-33.3 0-60.4 27.1-60.4 60.5H110V8.7h243.6c0 33.4 27 60.5 60.5 60.5v90.6h-17.8a20.5 20.5 0 0 0-20.5 20.4v91.2c0 11.3 9.2 20.4 20.5 20.4H414zm-86.8-92.5v-33.6h-57.8v-60.5h-33.7v60.5h-57.8v33.6h57.8v147h33.7v-147h57.8z"/><g fill="#333"><path d="M424.1 151h-1.3V29c0-16-13-29-29-29H75.8c-4.8 0-8.7 4-8.7 8.7V443c0 4.8 3.9 8.7 8.7 8.7h43.3v51.7a8.7 8.7 0 0 0 13.6 7.2l21.4-14.2 21.3 14.2a8.7 8.7 0 0 0 13.6-7.2v-51.7h204.6c16 0 29.1-13 29.1-29v-122h1.3c11.4 0 20.7-9.3 20.7-20.7V171.8c0-11.5-9.3-20.7-20.7-20.7zM405.3 29v30.7a51.9 51.9 0 0 1-42.2-42.2h30.6c6.4 0 11.6 5.2 11.6 11.6zM84.7 17.6h16.5v416.7H84.7V17.5zm87 469.4-12.7-8.4a8.7 8.7 0 0 0-9.7 0l-12.6 8.4v-35.3h35V487zm222-52.7h-30.6a51.9 51.9 0 0 1 42.2-42.3v30.7c0 6.4-5.2 11.6-11.6 11.6zm11.6-60c-31.2 4-56 28.8-59.9 60H118.7V17.5h226.7c4 31.2 28.7 56 60 59.9V151h-9.1a29.2 29.2 0 0 0-29.2 29.2v91a29.2 29.2 0 0 0 29.2 29.3h9v73.7zm22-94.3c0 1.8-1.4 3.2-3.2 3.2h-27.8c-6.5 0-11.8-5.2-11.8-11.7v-91.1c0-6.5 5.3-11.8 11.8-11.8H424c1.8 0 3.2 1.5 3.2 3.3v108z"/><path d="M327.2 157h-49.1v-51.8c0-4.8-4-8.7-8.7-8.7h-33.7c-4.8 0-8.7 4-8.7 8.7V157h-49.1c-4.9 0-8.8 4-8.8 8.8v33.6c0 4.9 4 8.8 8.8 8.8h49v138.3c0 4.8 4 8.7 8.8 8.7h33.7c4.8 0 8.7-3.9 8.7-8.7V208h49.1c4.8 0 8.7-4 8.7-8.8v-33.6c0-4.9-3.9-8.8-8.7-8.8zm-8.7 33.6h-49.1c-4.9 0-8.8 4-8.8 8.7v138.4h-16.2V199.3c0-4.8-3.9-8.7-8.7-8.7h-49.1v-16.2h49.1c4.8 0 8.7-4 8.7-8.7V114h16.2v51.7c0 4.8 4 8.7 8.8 8.7h49v16.2z"/><circle cx="405.9" cy="252.9" r="8.7"/><circle cx="405.9" cy="198.7" r="8.7"/></g></svg>
